<svg xlink="http://www.w3.org/1999/xlink" viewBox="0 0 5000 5000" xmlns="http://www.w3.org/2000/svg" style="transform: scale(1);"><defs><filter id="goo"><feGaussianBlur in="SourceGraphic" stdDeviation="0" result="blur"></feGaussianBlur><feColorMatrix in="blur" type="matrix" values="1 0 0 0 0 0 1 0 0 0 0 0 1 0 0 0 0 0 19 -9" result="good"></feColorMatrix><feComposite in="SourceGraphic" in2="goo" operator="atop"></feComposite></filter><path d="M283,258C260,266 246,269 222,270C234,257 233,254 216,252L261,218C263,237 268,245 283,258z" id="P0"></path><path d="M236,250L251,236L258,239L262,258L236,250z" id="P1"></path><path d="M271,245C273,259 263,270 249,272L231,262L239,231C252,238 258,241 271,245z" id="P2"></path><path d="M243,232L268,255L261,265L231,251L243,232z" id="P3"></path><path d="M267,266C249,264 239,258 227,243L240,228Q273,222 274,254C273,259 271,263 267,266z" id="P4"></path><path d="M264,258L252,266L245,235L264,242L264,258z" id="P5"></path><path d="M243,221C260,219 275,229 280,248C278,268 262,281 244,279L223,263L243,221z" id="P6"></path><path d="M244,261L237,252L253,237L262,245L244,261z" id="P7"></path><path d="M224,228Q260,200 282,239L268,279Q250,301 230,278Q199,253 224,228z" id="P8"></path><path d="M250,267L236,260L246,234L264,241L250,267z" id="P9"></path></defs><rect id="RECT" width="5000" height="5000" fill="#511065"></rect><g id="group" fill="#7E26B7" filter=""><use x="-171" y="-39" href="#P5"></use><use x="-23" y="345" href="#P4"></use><use x="31" y="512" href="#P8"></use><use x="-180" y="793" href="#P5"></use><use x="100" y="949" href="#P2"></use><use x="-55" y="1251" href="#P2"></use><use x="-142" y="1609" href="#P7"></use><use x="-109" y="1950" href="#P0"></use><use x="136" y="2080" href="#P5"></use><use x="46" y="2503" href="#P3"></use><use x="-154" y="2746" href="#P5"></use><use x="52" y="2904" href="#P1"></use><use x="26" y="3377" href="#P1"></use><use x="-111" y="3604" href="#P9"></use><use x="-49" y="3941" href="#P3"></use><use x="-39" y="4053" href="#P2"></use><use x="-78" y="4553" href="#P6"></use><use x="34" y="4684" href="#P8"></use><use x="-68" y="5083" href="#P1"></use><use x="-22" y="5366" href="#P3"></use><use x="151" y="-112" href="#P5"></use><use x="306" y="273" href="#P1"></use><use x="260" y="421" href="#P3"></use><use x="324" y="682" href="#P9"></use><use x="323" y="997" href="#P9"></use><use x="227" y="1359" href="#P1"></use><use x="395" y="1760" href="#P9"></use><use x="381" y="1850" href="#P7"></use><use x="305" y="2154" href="#P4"></use><use x="329" y="2546" href="#P3"></use><use x="199" y="2821" href="#P1"></use><use x="370" y="3146" href="#P3"></use><use x="217" y="3309" href="#P5"></use><use x="208" y="3560" href="#P6"></use><use x="250" y="3718" href="#P0"></use><use x="324" y="4045" href="#P2"></use><use x="312" y="4431" href="#P4"></use><use x="157" y="4786" href="#P0"></use><use x="239" y="5122" href="#P9"></use><use x="249" y="5188" href="#P7"></use><use x="657" y="-179" href="#P0"></use><use x="431" y="252" href="#P0"></use><use x="529" y="476" href="#P9"></use><use x="443" y="828" href="#P4"></use><use x="489" y="1027" href="#P3"></use><use x="584" y="1495" href="#P4"></use><use x="666" y="1546" href="#P2"></use><use x="535" y="2002" href="#P3"></use><use x="439" y="2302" href="#P0"></use><use x="611" y="2457" href="#P8"></use><use x="527" y="2608" href="#P4"></use><use x="554" y="3064" href="#P6"></use><use x="442" y="3152" href="#P4"></use><use x="539" y="3516" href="#P5"></use><use x="547" y="3902" href="#P8"></use><use x="642" y="4209" href="#P3"></use><use x="517" y="4497" href="#P8"></use><use x="628" y="4788" href="#P9"></use><use x="588" y="5104" href="#P8"></use><use x="392" y="5354" href="#P6"></use><use x="822" y="-49" href="#P9"></use><use x="760" y="238" href="#P2"></use><use x="722" y="483" href="#P9"></use><use x="885" y="818" href="#P6"></use><use x="806" y="1000" href="#P1"></use><use x="765" y="1383" href="#P2"></use><use x="875" y="1528" href="#P1"></use><use x="875" y="1964" href="#P7"></use><use x="801" y="2252" href="#P5"></use><use x="828" y="2466" href="#P1"></use><use x="780" y="2688" href="#P3"></use><use x="818" y="3090" href="#P0"></use><use x="735" y="3285" href="#P3"></use><use x="845" y="3670" href="#P9"></use><use x="747" y="3945" href="#P2"></use><use x="952" y="4012" href="#P6"></use><use x="730" y="4415" href="#P0"></use><use x="787" y="4674" href="#P3"></use><use x="953" y="5064" href="#P2"></use><use x="904" y="5332" href="#P4"></use><use x="965" y="-79" href="#P0"></use><use x="1205" y="240" href="#P0"></use><use x="1073" y="479" href="#P6"></use><use x="1199" y="683" href="#P0"></use><use x="1157" y="1172" href="#P1"></use><use x="1197" y="1296" href="#P4"></use><use x="1232" y="1768" href="#P5"></use><use x="1072" y="1931" href="#P1"></use><use x="1211" y="2124" href="#P1"></use><use x="1176" y="2456" href="#P8"></use><use x="1199" y="2723" href="#P6"></use><use x="1176" y="2947" href="#P8"></use><use x="1238" y="3403" href="#P8"></use><use x="997" y="3635" href="#P7"></use><use x="1103" y="3841" href="#P3"></use><use x="1001" y="4012" href="#P2"></use><use x="1083" y="4462" href="#P1"></use><use x="1021" y="4650" href="#P8"></use><use x="1020" y="4859" href="#P7"></use><use x="1173" y="5266" href="#P0"></use><use x="1473" y="25" href="#P6"></use><use x="1279" y="109" href="#P5"></use><use x="1263" y="477" href="#P1"></use><use x="1260" y="955" href="#P6"></use><use x="1371" y="1146" href="#P8"></use><use x="1522" y="1492" href="#P8"></use><use x="1425" y="1786" href="#P2"></use><use x="1266" y="1937" href="#P2"></use><use x="1393" y="2073" href="#P2"></use><use x="1433" y="2531" href="#P5"></use><use x="1417" y="2660" href="#P6"></use><use x="1364" y="3116" href="#P6"></use><use x="1503" y="3301" href="#P8"></use><use x="1340" y="3436" href="#P6"></use><use x="1504" y="3917" href="#P4"></use><use x="1423" y="4100" href="#P4"></use><use x="1381" y="4417" href="#P0"></use><use x="1259" y="4747" href="#P4"></use><use x="1405" y="4964" href="#P1"></use><use x="1295" y="5334" href="#P0"></use><use x="1529" y="92" href="#P8"></use><use x="1756" y="219" href="#P9"></use><use x="1780" y="601" href="#P5"></use><use x="1552" y="765" href="#P6"></use><use x="1551" y="1048" href="#P2"></use><use x="1806" y="1387" href="#P5"></use><use x="1798" y="1628" href="#P8"></use><use x="1622" y="1909" href="#P1"></use><use x="1617" y="2327" href="#P4"></use><use x="1773" y="2378" href="#P0"></use><use x="1672" y="2785" href="#P7"></use><use x="1765" y="3085" href="#P4"></use><use x="1551" y="3261" href="#P4"></use><use x="1693" y="3419" href="#P8"></use><use x="1618" y="3755" href="#P8"></use><use x="1736" y="3977" href="#P4"></use><use x="1794" y="4252" href="#P8"></use><use x="1644" y="4731" href="#P9"></use><use x="1711" y="4830" href="#P0"></use><use x="1706" y="5096" href="#P0"></use><use x="1946" y="-154" href="#P4"></use><use x="1918" y="246" href="#P2"></use><use x="1876" y="611" href="#P1"></use><use x="2002" y="723" href="#P3"></use><use x="2039" y="1030" href="#P9"></use><use x="1948" y="1362" href="#P6"></use><use x="2024" y="1725" href="#P9"></use><use x="2075" y="2009" href="#P3"></use><use x="1913" y="2239" href="#P3"></use><use x="1919" y="2571" href="#P4"></use><use x="1965" y="2751" href="#P5"></use><use x="1906" y="3028" href="#P2"></use><use x="1920" y="3376" href="#P7"></use><use x="1981" y="3597" href="#P7"></use><use x="2056" y="3889" href="#P5"></use><use x="2031" y="4203" href="#P9"></use><use x="2056" y="4264" href="#P9"></use><use x="1987" y="4749" href="#P6"></use><use x="1895" y="4911" href="#P4"></use><use x="2032" y="5126" href="#P6"></use><use x="2229" y="-16" href="#P2"></use><use x="2358" y="395" href="#P2"></use><use x="2302" y="547" href="#P4"></use><use x="2231" y="919" href="#P4"></use><use x="2108" y="1117" href="#P2"></use><use x="2257" y="1417" href="#P0"></use><use x="2279" y="1789" href="#P8"></use><use x="2312" y="1881" href="#P9"></use><use x="2288" y="2285" href="#P4"></use><use x="2254" y="2362" href="#P1"></use><use x="2335" y="2612" href="#P0"></use><use x="2131" y="2885" href="#P6"></use><use x="2210" y="3210" href="#P0"></use><use x="2125" y="3669" href="#P3"></use><use x="2176" y="3812" href="#P6"></use><use x="2334" y="4176" href="#P2"></use><use x="2361" y="4511" href="#P3"></use><use x="2286" y="4726" href="#P0"></use><use x="2197" y="5065" href="#P4"></use><use x="2293" y="5099" href="#P4"></use><use x="2472" y="12" href="#P0"></use><use x="2378" y="333" href="#P3"></use><use x="2384" y="603" href="#P9"></use><use x="2500" y="901" href="#P0"></use><use x="2385" y="1126" href="#P5"></use><use x="2510" y="1372" href="#P5"></use><use x="2524" y="1714" href="#P0"></use><use x="2429" y="1935" href="#P3"></use><use x="2481" y="2123" href="#P7"></use><use x="2387" y="2338" href="#P5"></use><use x="2442" y="2741" href="#P7"></use><use x="2595" y="2940" href="#P5"></use><use x="2497" y="3244" href="#P9"></use><use x="2423" y="3638" href="#P8"></use><use x="2425" y="3948" href="#P0"></use><use x="2627" y="3988" href="#P3"></use><use x="2395" y="4487" href="#P1"></use><use x="2398" y="4717" href="#P0"></use><use x="2388" y="4842" href="#P4"></use><use x="2445" y="5276" href="#P9"></use><use x="2861" y="35" href="#P9"></use><use x="2759" y="389" href="#P6"></use><use x="2853" y="653" href="#P1"></use><use x="2849" y="786" href="#P0"></use><use x="2898" y="1155" href="#P9"></use><use x="2772" y="1418" href="#P9"></use><use x="2660" y="1655" href="#P2"></use><use x="2851" y="1816" href="#P3"></use><use x="2796" y="2323" href="#P9"></use><use x="2799" y="2479" href="#P3"></use><use x="2868" y="2694" href="#P7"></use><use x="2800" y="3121" href="#P3"></use><use x="2698" y="3158" href="#P9"></use><use x="2700" y="3503" href="#P0"></use><use x="2740" y="3808" href="#P5"></use><use x="2832" y="4020" href="#P0"></use><use x="2805" y="4335" href="#P6"></use><use x="2641" y="4552" href="#P8"></use><use x="2854" y="4873" href="#P1"></use><use x="2846" y="5285" href="#P0"></use><use x="3160" y="-102" href="#P1"></use><use x="3131" y="254" href="#P0"></use><use x="2936" y="520" href="#P2"></use><use x="3156" y="753" href="#P3"></use><use x="3151" y="1000" href="#P4"></use><use x="3175" y="1453" href="#P8"></use><use x="3068" y="1745" href="#P8"></use><use x="3116" y="1991" href="#P0"></use><use x="3016" y="2266" href="#P1"></use><use x="3054" y="2363" href="#P9"></use><use x="3150" y="2752" href="#P2"></use><use x="3048" y="3097" href="#P8"></use><use x="3106" y="3387" href="#P1"></use><use x="3049" y="3655" href="#P7"></use><use x="3113" y="3919" href="#P0"></use><use x="3075" y="4229" href="#P4"></use><use x="2943" y="4273" href="#P9"></use><use x="3043" y="4520" href="#P5"></use><use x="3176" y="4896" href="#P4"></use><use x="2971" y="5097" href="#P7"></use><use x="3482" y="-138" href="#P1"></use><use x="3246" y="380" href="#P8"></use><use x="3349" y="568" href="#P3"></use><use x="3468" y="819" href="#P7"></use><use x="3222" y="1169" href="#P3"></use><use x="3390" y="1448" href="#P4"></use><use x="3308" y="1703" href="#P6"></use><use x="3357" y="1966" href="#P1"></use><use x="3202" y="2111" href="#P7"></use><use x="3280" y="2399" href="#P3"></use><use x="3269" y="2744" href="#P2"></use><use x="3427" y="2870" href="#P8"></use><use x="3185" y="3200" href="#P3"></use><use x="3249" y="3585" href="#P5"></use><use x="3437" y="3812" href="#P3"></use><use x="3335" y="4059" href="#P7"></use><use x="3400" y="4320" href="#P7"></use><use x="3305" y="4615" href="#P9"></use><use x="3362" y="4833" href="#P8"></use><use x="3225" y="5215" href="#P6"></use><use x="3646" y="-9" href="#P7"></use><use x="3683" y="277" href="#P2"></use><use x="3603" y="609" href="#P9"></use><use x="3487" y="761" href="#P0"></use><use x="3502" y="1040" href="#P2"></use><use x="3722" y="1432" href="#P9"></use><use x="3697" y="1611" href="#P1"></use><use x="3657" y="1946" href="#P7"></use><use x="3475" y="2138" href="#P6"></use><use x="3506" y="2510" href="#P0"></use><use x="3470" y="2653" href="#P6"></use><use x="3467" y="3017" href="#P3"></use><use x="3704" y="3278" href="#P8"></use><use x="3539" y="3631" href="#P0"></use><use x="3547" y="3941" href="#P5"></use><use x="3720" y="4189" href="#P9"></use><use x="3486" y="4280" href="#P8"></use><use x="3719" y="4720" href="#P3"></use><use x="3747" y="4888" href="#P7"></use><use x="3542" y="5119" href="#P9"></use><use x="3894" y="59" href="#P9"></use><use x="3952" y="118" href="#P5"></use><use x="4021" y="463" href="#P2"></use><use x="3834" y="736" href="#P7"></use><use x="3890" y="1163" href="#P4"></use><use x="4019" y="1363" href="#P3"></use><use x="3921" y="1635" href="#P2"></use><use x="3802" y="1981" href="#P8"></use><use x="3763" y="2061" href="#P7"></use><use x="3997" y="2564" href="#P4"></use><use x="4000" y="2816" href="#P4"></use><use x="3972" y="2987" href="#P6"></use><use x="3787" y="3399" href="#P1"></use><use x="4016" y="3491" href="#P6"></use><use x="3802" y="3869" href="#P9"></use><use x="3881" y="4180" href="#P5"></use><use x="3964" y="4465" href="#P3"></use><use x="4001" y="4787" href="#P8"></use><use x="3819" y="4846" href="#P5"></use><use x="3883" y="5276" href="#P4"></use><use x="4178" y="-86" href="#P5"></use><use x="4064" y="305" href="#P0"></use><use x="4306" y="614" href="#P3"></use><use x="4233" y="929" href="#P7"></use><use x="4150" y="1048" href="#P9"></use><use x="4041" y="1416" href="#P7"></use><use x="4221" y="1538" href="#P3"></use><use x="4055" y="1800" href="#P3"></use><use x="4288" y="2162" href="#P3"></use><use x="4030" y="2558" href="#P7"></use><use x="4266" y="2868" href="#P7"></use><use x="4169" y="3079" href="#P5"></use><use x="4255" y="3185" href="#P1"></use><use x="4117" y="3619" href="#P2"></use><use x="4282" y="3779" href="#P0"></use><use x="4085" y="4024" href="#P9"></use><use x="4225" y="4485" href="#P0"></use><use x="4295" y="4775" href="#P7"></use><use x="4272" y="4982" href="#P2"></use><use x="4169" y="5114" href="#P9"></use><use x="4528" y="-53" href="#P9"></use><use x="4513" y="200" href="#P0"></use><use x="4356" y="397" href="#P8"></use><use x="4401" y="888" href="#P8"></use><use x="4379" y="1012" href="#P9"></use><use x="4317" y="1323" href="#P4"></use><use x="4432" y="1581" href="#P9"></use><use x="4564" y="1901" href="#P9"></use><use x="4412" y="2302" href="#P8"></use><use x="4317" y="2468" href="#P4"></use><use x="4421" y="2724" href="#P3"></use><use x="4361" y="3048" href="#P4"></use><use x="4518" y="3233" href="#P3"></use><use x="4366" y="3652" href="#P3"></use><use x="4415" y="3791" href="#P4"></use><use x="4326" y="4034" href="#P6"></use><use x="4448" y="4503" href="#P9"></use><use x="4468" y="4676" href="#P7"></use><use x="4502" y="4860" href="#P4"></use><use x="4503" y="5180" href="#P6"></use><use x="4855" y="-2" href="#P0"></use><use x="4824" y="180" href="#P0"></use><use x="4834" y="506" href="#P6"></use><use x="4796" y="801" href="#P5"></use><use x="4625" y="1083" href="#P4"></use><use x="4833" y="1266" href="#P3"></use><use x="4839" y="1711" href="#P3"></use><use x="4660" y="2039" href="#P6"></use><use x="4649" y="2236" href="#P4"></use><use x="4765" y="2376" href="#P1"></use><use x="4791" y="2850" href="#P4"></use><use x="4723" y="2878" href="#P0"></use><use x="4833" y="3428" href="#P6"></use><use x="4761" y="3608" href="#P7"></use><use x="4639" y="3856" href="#P7"></use><use x="4809" y="4069" href="#P9"></use><use x="4780" y="4439" href="#P1"></use><use x="4782" y="4740" href="#P0"></use><use x="4810" y="4914" href="#P3"></use><use x="4775" y="5149" href="#P0"></use><use x="5171" y="-96" href="#P9"></use><use x="5130" y="300" href="#P9"></use><use x="5133" y="623" href="#P7"></use><use x="5030" y="702" href="#P8"></use><use x="5031" y="1075" href="#P8"></use><use x="5033" y="1280" href="#P1"></use><use x="4944" y="1665" href="#P7"></use><use x="4919" y="1880" href="#P7"></use><use x="4879" y="2195" href="#P8"></use><use x="5094" y="2357" href="#P3"></use><use x="4979" y="2858" href="#P4"></use><use x="4915" y="3043" href="#P8"></use><use x="5120" y="3267" href="#P0"></use><use x="5038" y="3658" href="#P5"></use><use x="4897" y="3877" href="#P4"></use><use x="5096" y="4096" href="#P0"></use><use x="5080" y="4516" href="#P2"></use><use x="5156" y="4575" href="#P6"></use><use x="5054" y="4937" href="#P6"></use><use x="5080" y="5334" href="#P3"></use></g></svg>