<svg id="visual" viewBox="0 0 960 540" width="960" height="540" xmlns="http://www.w3.org/2000/svg" xmlns:xlink="http://www.w3.org/1999/xlink" version="1.1"><path d="M0 44L32 45C64 46 128 48 192 53.5C256 59 320 68 384 68C448 68 512 59 576 59.8C640 60.7 704 71.3 768 71.3C832 71.3 896 60.7 928 55.3L960 50L960 0L928 0C896 0 832 0 768 0C704 0 640 0 576 0C512 0 448 0 384 0C320 0 256 0 192 0C128 0 64 0 32 0L0 0Z" fill="#5b4693"></path><path d="M0 163L32 172C64 181 128 199 192 217.8C256 236.7 320 256.3 384 249.2C448 242 512 208 576 197.3C640 186.7 704 199.3 768 215.5C832 231.7 896 251.3 928 261.2L960 271L960 48L928 53.3C896 58.7 832 69.3 768 69.3C704 69.3 640 58.7 576 57.8C512 57 448 66 384 66C320 66 256 57 192 51.5C128 46 64 44 32 43L0 42Z" fill="#4b367d"></path><path d="M0 293L32 290.2C64 287.3 128 281.7 192 295.2C256 308.7 320 341.3 384 336C448 330.7 512 287.3 576 277.3C640 267.3 704 290.7 768 314C832 337.3 896 360.7 928 372.3L960 384L960 269L928 259.2C896 249.3 832 229.7 768 213.5C704 197.3 640 184.7 576 195.3C512 206 448 240 384 247.2C320 254.3 256 234.7 192 215.8C128 197 64 179 32 170L0 161Z" fill="#422c70"></path><path d="M0 401L32 397.3C64 393.7 128 386.3 192 395.3C256 404.3 320 429.7 384 417C448 404.3 512 353.7 576 343.7C640 333.7 704 364.3 768 388.7C832 413 896 431 928 440L960 449L960 382L928 370.3C896 358.7 832 335.3 768 312C704 288.7 640 265.3 576 275.3C512 285.3 448 328.7 384 334C320 339.3 256 306.7 192 293.2C128 279.7 64 285.3 32 288.2L0 291Z" fill="#4b367d"></path><path d="M0 541L32 541C64 541 128 541 192 541C256 541 320 541 384 541C448 541 512 541 576 541C640 541 704 541 768 541C832 541 896 541 928 541L960 541L960 447L928 438C896 429 832 411 768 386.7C704 362.3 640 331.7 576 341.7C512 351.7 448 402.3 384 415C320 427.7 256 402.3 192 393.3C128 384.3 64 391.7 32 395.3L0 399Z" fill="#5b4693"></path></svg>